{
  "accessors": [
    {
      "bufferView": 2,
      "componentType": 5126,
      "count": 20644,
      "max": [
        0.49547868967056274,
        0.4978863000869751,
        0.23708337545394897
      ],
      "min": [
        -0.49525952339172363,
        -0.4987349510192871,
        -0.23708337545394897
      ],
      "type": "VEC3"
    },
    {
      "bufferView": 2,
      "byteOffset": 247728,
      "componentType": 5126,
      "count": 20644,
      "max": [
        0.9999944567680359,
        0.9999999403953552,
        0.9999998211860657
      ],
      "min": [
        -0.9995993375778198,
        -1.0,
        -0.9999998211860657
      ],
      "type": "VEC3"
    },
    {
      "bufferView": 1,
      "componentType": 5126,
      "count": 20644,
      "max": [
        0.999785840511322,
        0.8439330458641052
      ],
      "min": [
        7.843226194381714e-05,
        1.8417835235595703e-05
      ],
      "type": "VEC2"
    },
    {
      "bufferView": 1,
      "byteOffset": 165152,
      "componentType": 5126,
      "count": 20644,
      "max": [
        0.999785840511322,
        0.8439330458641052
      ],
      "min": [
        7.843226194381714e-05,
        1.8417835235595703e-05
      ],
      "type": "VEC2"
    },
    {
      "bufferView": 1,
      "byteOffset": 330304,
      "componentType": 5126,
      "count": 20644,
      "max": [
        0.999785840511322,
        0.8439330458641052
      ],
      "min": [
        7.843226194381714e-05,
        1.8417835235595703e-05
      ],
      "type": "VEC2"
    },
    {
      "bufferView": 1,
      "byteOffset": 495456,
      "componentType": 5126,
      "count": 20644,
      "max": [
        0.999785840511322,
        0.8439330458641052
      ],
      "min": [
        7.843226194381714e-05,
        1.8417835235595703e-05
      ],
      "type": "VEC2"
    },
    {
      "bufferView": 0,
      "componentType": 5125,
      "count": 116730,
      "type": "SCALAR"
    }
  ],
  "asset": {
    "extras": {
      "author": "12jdjwjwnwnw (https://sketchfab.com/12jdjwjwnwnw)",
      "license": "CC-BY-4.0 (http://creativecommons.org/licenses/by/4.0/)",
      "source": "https://sketchfab.com/3d-models/jantung-e3043d120b8d4888947bb43698cf6fec",
      "title": "jantung"
    },
    "generator": "Sketchfab-17.14.0",
    "version": "2.0"
  },
  "bufferViews": [
    {
      "buffer": 0,
      "byteLength": 466920,
      "name": "floatBufferViews",
      "target": 34963
    },
    {
      "buffer": 0,
      "byteLength": 660608,
      "byteOffset": 466920,
      "byteStride": 8,
      "name": "floatBufferViews",
      "target": 34962
    },
    {
      "buffer": 0,
      "byteLength": 495456,
      "byteOffset": 1127528,
      "byteStride": 12,
      "name": "floatBufferViews",
      "target": 34962
    }
  ],
  "buffers": [
    {
      "byteLength": 1622984,
      "uri": "scene.bin"
    }
  ],
  "extensionsRequired": [
    "KHR_materials_pbrSpecularGlossiness"
  ],
  "extensionsUsed": [
    "KHR_materials_pbrSpecularGlossiness"
  ],
  "images": [
    {
      "uri": "textures/material_diffuse.png"
    },
    {
      "uri": "textures/material_specularGlossiness.png"
    }
  ],
  "materials": [
    {
      "doubleSided": true,
      "extensions": {
        "KHR_materials_pbrSpecularGlossiness": {
          "diffuseFactor": [
            1.0,
            1.0,
            1.0,
            1.0
          ],
          "diffuseTexture": {
            "index": 0
          },
          "glossinessFactor": 1.0,
          "specularFactor": [
            1.0,
            1.0,
            1.0
          ],
          "specularGlossinessTexture": {
            "index": 1,
            "texCoord": 1
          }
        }
      },
      "name": "material"
    }
  ],
  "meshes": [
    {
      "name": "Object_0",
      "primitives": [
        {
          "attributes": {
            "NORMAL": 1,
            "POSITION": 0,
            "TEXCOORD_0": 2,
            "TEXCOORD_1": 3,
            "TEXCOORD_2": 4,
            "TEXCOORD_3": 5
          },
          "indices": 6,
          "material": 0,
          "mode": 4
        }
      ]
    }
  ],
  "nodes": [
    {
      "children": [
        1
      ],
      "matrix": [
        1.0,
        0.0,
        0.0,
        0.0,
        0.0,
        2.220446049250313e-16,
        -1.0,
        0.0,
        0.0,
        1.0,
        2.220446049250313e-16,
        0.0,
        0.0,
        0.0,
        0.0,
        1.0
      ],
      "name": "Sketchfab_model"
    },
    {
      "children": [
        2
      ],
      "name": "root"
    },
    {
      "children": [
        3
      ],
      "matrix": [
        1.0,
        0.0,
        0.0,
        0.0,
        0.0,
        2.220446049250313e-16,
        1.0,
        0.0,
        0.0,
        -1.0,
        2.220446049250313e-16,
        0.0,
        0.0,
        0.0,
        0.0,
        1.0
      ],
      "name": "GLTF_SceneRootNode"
    },
    {
      "children": [
        4
      ],
      "matrix": [
        1.0,
        0.0,
        0.0,
        0.0,
        0.0,
        2.220446049250313e-16,
        -1.0,
        0.0,
        0.0,
        1.0,
        2.220446049250313e-16,
        0.0,
        0.0,
        0.0,
        0.0,
        1.0
      ],
      "name": "Sketchfab_model_0"
    },
    {
      "children": [
        5
      ],
      "name": "root_1"
    },
    {
      "children": [
        6
      ],
      "matrix": [
        1.0,
        0.0,
        0.0,
        0.0,
        0.0,
        2.220446049250313e-16,
        1.0,
        0.0,
        0.0,
        -1.0,
        2.220446049250313e-16,
        0.0,
        0.0,
        0.0,
        0.0,
        1.0
      ],
      "name": "GLTF_SceneRootNode_2"
    },
    {
      "children": [
        7
      ],
      "name": "root_1_3"
    },
    {
      "children": [
        8
      ],
      "matrix": [
        -0.2548947036266327,
        0.007968471385538578,
        0.01449092011898756,
        0.0,
        0.012189393863081932,
        0.3345291018486023,
        0.030455389991402626,
        0.0,
        -0.009014101698994637,
        0.015541518107056618,
        -0.1671038717031479,
        0.0,
        -0.0033234013244509697,
        -0.018588295206427574,
        0.2000279724597931,
        1.0
      ],
      "name": "_0_4"
    },
    {
      "children": [
        9
      ],
      "name": "Object_5_5"
    },
    {
      "mesh": 0,
      "name": "Object_9"
    }
  ],
  "samplers": [
    {
      "magFilter": 9729,
      "minFilter": 9987,
      "wrapS": 10497,
      "wrapT": 10497
    }
  ],
  "scene": 0,
  "scenes": [
    {
      "name": "Sketchfab_Scene",
      "nodes": [
        0
      ]
    }
  ],
  "textures": [
    {
      "sampler": 0,
      "source": 0
    },
    {
      "sampler": 0,
      "source": 1
    }
  ]
}
